<?xml version="1.0" encoding="UTF-8"?>
<svg width="40" height="40" viewBox="0 0 40 40" fill="none" xmlns="http://www.w3.org/2000/svg">
    <circle cx="20" cy="20" r="20" fill="#0D6EFD"/>
    <path d="M20 11C17.2386 11 15 13.2386 15 16C15 18.7614 17.2386 21 20 21C22.7614 21 25 18.7614 25 16C25 13.2386 22.7614 11 20 11ZM13 26.5C13 23.4624 16.4624 21 20 21C23.5376 21 27 23.4624 27 26.5V29H13V26.5Z" fill="white"/>
    <path d="M27.5 15.5C27.5 14.1193 28.6193 13 30 13C31.3807 13 32.5 14.1193 32.5 15.5C32.5 16.8807 31.3807 18 30 18C28.6193 18 27.5 16.8807 27.5 15.5Z" fill="white"/>
    <path d="M7.5 15.5C7.5 14.1193 8.61929 13 10 13C11.3807 13 12.5 14.1193 12.5 15.5C12.5 16.8807 11.3807 18 10 18C8.61929 18 7.5 16.8807 7.5 15.5Z" fill="white"/>
</svg> 