<?xml version="1.0" encoding="UTF-8"?>
<svg width="18px" height="18px" viewBox="0 0 18 18" version="1.1" xmlns="http://www.w3.org/2000/svg" xmlns:xlink="http://www.w3.org/1999/xlink">
    <g stroke="none" stroke-width="1" fill="none" fill-rule="evenodd">
        <path d="M17,9 C17,4.58172178 13.4182782,1 9,1 C4.58172178,1 1,4.58172178 1,9 C1,13.4182782 4.58172178,17 9,17 C13.4182782,17 17,13.4182782 17,9 Z M9.82857143,13.6 L9.82857143,9.8 L11.2,9.8 L11.4285714,8.2 L9.82857143,8.2 L9.82857143,7.2571429 C9.82857143,6.8 9.94285714,6.6 10.4,6.6 L11.4285714,6.6 L11.4285714,5 C11.3142857,5 10.8571429,5 10.4,5 C9.14285714,5 8.34285714,5.8 8.34285714,7.14285714 L8.34285714,8.2 L7.14285714,8.2 L7.14285714,9.8 L8.34285714,9.8 L8.34285714,13.6 L9.82857143,13.6 Z" fill="#FFFFFF" fill-rule="nonzero"></path>
    </g>
</svg> 